<?xml version="1.0" encoding="utf-8"?>
<!-- Generator: Adobe Illustrator 17.0.0, SVG Export Plug-In . SVG Version: 6.00 Build 0)  -->
<!DOCTYPE svg PUBLIC "-//W3C//DTD SVG 1.1//EN" "http://www.w3.org/Graphics/SVG/1.1/DTD/svg11.dtd">
<svg version="1.1" id="Layer_1" xmlns="http://www.w3.org/2000/svg" x="0px" y="0px"
     width="135.651px" height="36.008px" viewBox="0 0 135.651 36.008" enable-background="new 0 0 135.651 36.008"
     xml:space="preserve">
<path fill-rule="evenodd" clip-rule="evenodd"  d="M18.003,0C8.061,0,0,8.061,0,18.004s8.061,18.004,18.003,18.004
	c9.943,0,18.003-8.061,18.003-18.004S27.947,0,18.003,0z M18.141,23.609c1.555,0,2.962-0.636,3.976-1.66l5.472,5.474
	c0.073,0.072-1.446,0.154-2.982,1.017c-1.145,0.644-2.18,2.04-2.489,2.48c-0.266,0.379-0.426-0.659,0.539-1.952
	c1.088-1.459,1.886-1.723,2.271-2.119c0-0.185-2.393-2.639-6.407-1.204c-4.013,1.435-4.172,4.621-3.935,4.776
	c0.126,0.082,1.008,0.231,1.804,0.931c0.912,0.761,1.349,1.711,1.321,1.827c-0.009,0.036-1.192-1.195-2.7-1.827
	c-1.199-0.504-2.747-0.432-3.033-0.432c-0.181,0-0.267-0.274,0.411-0.499c0.678-0.225,0.692-0.309,0.609-0.471
	c-0.072-0.139-0.799-1.301-2.45-1.943c-1.65-0.643-3.164-0.167-3.164-0.167s-0.876-0.938-1.7-2.308
	c-0.662-1.1-1.266-2.54-1.542-3.521c-0.352-1.25-0.54-2.569-0.54-3.932c0-7.996,6.481-14.479,14.475-14.479
	c4.041,0,7.695,1.656,10.321,4.327l-6.215,6.218c-1.018-1.063-2.452-1.726-4.041-1.726c-3.088,0-5.592,2.504-5.592,5.593
	C12.549,21.104,15.052,23.609,18.141,23.609z"/>
    <path fill-rule="evenodd" clip-rule="evenodd"  d="M135.651,22.894v-2.586h-4.464v-1.07h4.362v-2.586h-4.362v-0.969
	h4.464V13.1h-7.431v9.795H135.651z M125.452,22.894l-3.862-5.242l3.701-4.553h-3.627l-2.57,3.67V13.1h-2.966v9.795h2.966v-2.717
	l0.543-0.734l2.203,3.451H125.452z M112.301,22.894V13.1h-2.967v9.795H112.301z M100.663,20.309h-1.41v-4.625h1.425
	c1.586,0,2.35,0.982,2.35,2.305C103.027,19.223,102.146,20.309,100.663,20.309z M100.677,22.894c3.069,0,5.36-1.777,5.36-4.906
	c0-3.127-2.291-4.889-5.375-4.889h-4.376v9.795H100.677z M87.629,23.07c3.304,0,4.832-1.777,4.832-4.215V13.1H89.45v5.668
	c0,0.94-0.616,1.69-1.821,1.69c-1.219,0-1.835-0.75-1.835-1.69V13.1h-3.011v5.769C82.782,21.293,84.325,23.07,87.629,23.07z
	 M74.126,20.457c-1.425,0-2.35-1.088-2.35-2.453c0-1.367,0.925-2.451,2.35-2.451c1.424,0,2.349,1.084,2.349,2.451
	C76.475,19.369,75.55,20.457,74.126,20.457z M74.126,23.07c3.025,0,5.36-2.055,5.36-5.066s-2.335-5.066-5.36-5.066
	c-3.025,0-5.36,2.055-5.36,5.066S71.1,23.07,74.126,23.07z M66.159,22.894v-2.586h-3.716V13.1h-2.966v9.795H66.159z M51.861,23.07
	c2.57,0,3.877-1.557,4.45-2.863l-2.555-1.176c-0.25,0.764-1.014,1.426-1.895,1.426c-1.424,0-2.379-1.088-2.379-2.453
	c0-1.367,0.955-2.451,2.379-2.451c0.881,0,1.646,0.658,1.895,1.424l2.555-1.191c-0.587-1.352-1.88-2.848-4.45-2.848
	c-3.069,0-5.389,2.041-5.389,5.066C46.472,21.016,48.792,23.07,51.861,23.07z"/>
</svg>
